<svg t="1730906459601" class="icon" viewBox="0 0 1024 1024" version="1.1" xmlns="http://www.w3.org/2000/svg" p-id="10515" width="200" height="200"><path d="M719.768116 351.568216c0 259.454273-221.073463 469.269365-493.833084 472.851574 78.296852 91.090455 197.021489 145.847076 325.98101 145.847077 231.308346 0 418.094953-174.504748 418.094953-388.413794 0-162.734633-109.001499-306.534733-270.2009-362.826586 13.305347 42.474763 19.958021 86.996502 19.958021 132.541729zM643.518241 220.049975c-9.723138-27.122439-9.211394-37.357321 0-49.63918 0 0 28.657671-16.887556 59.362319-7.164418 186.274863 58.850575 320.351824 224.143928 320.351824 418.606696 0 244.101949-211.350325 442.146927-471.828086 442.146927C394.298851 1023.488256 254.592704 950.82059 169.131434 839.26037c-6.14093-8.187906-9.211394-17.911044-8.69965-27.634183 1.023488-24.051974 22.004998-42.474763 46.056972-40.93953 4.605697 0 8.69965 0.511744 12.281859 0.511744 247.172414 0 447.264368-187.810095 447.264368-419.118441 0-46.568716-7.676162-91.090455-22.516742-132.029985z m-355.662169 406.324838l4.605697-26.610695-18.934533-19.446277c-4.605697-4.605697-4.093953-11.770115 0-16.375812 1.535232-1.535232 4.093953-2.558721 6.14093-3.070465l25.075462-3.582209 20.981509-45.033483 20.98151 45.033483 25.587206 3.582209c6.14093 1.023488 10.234883 6.652674 9.723139 13.305348-0.511744 2.558721-1.535232 4.605697-3.070465 6.140929l-18.422789 19.446277 4.605697 26.610695c1.023488 6.14093-3.070465 12.281859-9.211394 13.305347-2.558721 0.511744-5.117441 0-7.164418-1.023488l-21.493253-12.281859-21.493254 12.281859c-5.629185 3.070465-12.281859 1.023488-15.352323-4.605697-2.558721-2.558721-3.070465-5.117441-2.558721-7.676162zM96.975512 337.751124l9.211395-53.733133-38.38081-38.38081c-4.605697-4.605697-4.605697-12.281859 0-16.887556 2.046977-1.535232 4.093953-3.070465 6.652674-3.070465l52.197901-7.676161c12.281859-38.892554 24.051974-58.338831 35.310344-58.338831s21.493253 19.446277 31.728136 58.338831L245.893053 225.67916c6.652674 1.023488 11.258371 7.164418 10.234883 13.305348-0.511744 2.558721-1.535232 4.605697-3.070465 6.652673L215.188406 284.017991 223.888056 337.751124c1.023488 6.652674-3.582209 12.793603-9.723138 13.817092-2.558721 0.511744-5.629185 0-7.676162-1.535232l-45.545228-24.563719-45.545227 24.563719c-5.629185 3.070465-13.305347 1.023488-16.375812-4.605698-2.046977-2.046977-2.558721-4.605697-2.046977-7.676162z" fill="#333333" p-id="10516"></path></svg>