<?xml version="1.0" standalone="no"?><!DOCTYPE svg PUBLIC "-//W3C//DTD SVG 1.1//EN" "http://www.w3.org/Graphics/SVG/1.1/DTD/svg11.dtd"><svg t="1730906678847" class="icon" viewBox="0 0 1088 1024" version="1.1" xmlns="http://www.w3.org/2000/svg" p-id="12487" xmlns:xlink="http://www.w3.org/1999/xlink" width="212.5" height="200"><path d="M545.28 239.872a273.344 273.344 0 0 0-194.56 80.64 273.344 273.344 0 0 0-80.64 194.56c0 73.536 28.608 142.656 80.64 194.624a273.344 273.344 0 0 0 194.56 80.64 273.344 273.344 0 0 0 194.56-80.64 273.344 273.344 0 0 0 80.64-194.56 273.344 273.344 0 0 0-80.64-194.624 273.344 273.344 0 0 0-194.56-80.64z m0 482.304a207.424 207.424 0 0 1-207.168-207.168A207.36 207.36 0 0 1 545.28 307.776a207.424 207.424 0 0 1 207.232 207.232 207.36 207.36 0 0 1-207.232 207.168z m124.608 81.408H420.672a33.92 33.92 0 1 0 0 68.032h249.216a33.92 33.92 0 1 0 0-68.032z m-49.792 81.408H470.592a33.92 33.92 0 1 0 0 68.032H620.16a33.92 33.92 0 1 0 0-68.032zM545.28 227.52a33.92 33.92 0 0 0 34.048-34.048V97.024a33.92 33.92 0 1 0-68.032 0v96.448c0 18.752 15.232 34.048 33.984 34.048z m188.032 49.408a34.112 34.112 0 0 0 47.36-8.32l55.296-79.04a34.112 34.112 0 0 0-55.68-39.04l-55.296 78.976a33.984 33.984 0 0 0 8.32 47.36z m236.672 80.64a33.984 33.984 0 0 0-43.776-19.84l-90.432 33.792a33.984 33.984 0 1 0 23.936 63.68l90.368-33.792a33.984 33.984 0 0 0 19.904-43.776zM315.392 252.544a34.112 34.112 0 0 0 47.36 8.32c15.424-10.816 19.2-32 8.32-47.36L315.776 134.4a33.984 33.984 0 1 0-55.68 39.04l55.296 79.04z m-35.264 146.56a34.112 34.112 0 0 0-19.904-43.712l-90.432-33.856a34.112 34.112 0 0 0-23.872 63.744l90.368 33.792a33.984 33.984 0 0 0 43.776-19.84v-0.064z" fill="#333333" p-id="12488"></path></svg>